<?xml version="1.0" standalone="no"?>
<!DOCTYPE svg PUBLIC "-//W3C//DTD SVG 20010904//EN"
 "http://www.w3.org/TR/2001/REC-SVG-20010904/DTD/svg10.dtd">
<svg version="1.0" xmlns="http://www.w3.org/2000/svg"
 width="512.000000pt" height="512.000000pt" viewBox="0 0 512.000000 512.000000"
 preserveAspectRatio="xMidYMid meet">

<g transform="translate(0.000000,512.000000) scale(0.100000,-0.100000)"
fill="#000000" stroke="none">
<path d="M2325 5109 c-592 -61 -1119 -304 -1539 -709 -423 -409 -682 -925
-762 -1520 -20 -150 -22 -459 -5 -605 56 -457 226 -884 493 -1240 70 -92 371
-401 470 -481 237 -191 564 -360 869 -449 241 -70 446 -98 714 -98 400 1 768
85 1120 258 999 489 1569 1572 1406 2670 -104 699 -494 1326 -1075 1729 -321
223 -687 368 -1079 427 -153 23 -473 33 -612 18z m1500 -2549 c0 -5 -425 -253
-945 -551 -520 -297 -964 -552 -987 -565 l-43 -25 0 1140 0 1140 988 -565
c543 -310 987 -568 987 -574z"/>
</g>
</svg>
