<?xml version="1.0" standalone="no"?>
<!DOCTYPE svg PUBLIC "-//W3C//DTD SVG 20010904//EN"
 "http://www.w3.org/TR/2001/REC-SVG-20010904/DTD/svg10.dtd">
<svg version="1.0" xmlns="http://www.w3.org/2000/svg"
 width="512.000000pt" height="512.000000pt" viewBox="0 0 512.000000 512.000000"
 preserveAspectRatio="xMidYMid meet">

<g transform="translate(0.000000,512.000000) scale(0.100000,-0.100000)"
fill="#000000" stroke="none">
<path d="M2280 4885 c-674 -84 -1271 -449 -1659 -1015 -209 -305 -349 -685
-391 -1065 -13 -118 -13 -371 1 -493 49 -457 238 -901 536 -1260 332 -400 829
-693 1343 -792 215 -42 518 -52 745 -24 676 82 1302 477 1678 1060 193 298
316 650 358 1023 17 149 7 474 -20 626 -129 750 -600 1383 -1276 1715 -238
117 -527 201 -787 229 -129 14 -397 12 -528 -4z m-323 -461 c272 -56 494 -230
608 -477 101 -220 101 -494 0 -714 -36 -79 -105 -182 -149 -222 l-26 -24 0
-647 c0 -724 1 -716 -67 -782 -65 -64 -86 -68 -325 -68 -118 0 -230 5 -251 11
-47 13 -102 60 -128 110 -18 36 -19 64 -19 593 l0 554 -67 22 c-300 96 -523
353 -578 665 -19 110 -19 180 0 290 36 203 142 386 298 513 109 88 264 160
394 182 82 13 230 11 310 -6z m1431 -810 c47 -19 88 -58 113 -106 18 -36 19
-71 19 -945 0 -862 -1 -910 -19 -949 -22 -48 -82 -101 -131 -114 -19 -6 -132
-10 -250 -10 -187 0 -220 3 -256 19 -57 26 -111 92 -124 155 -8 36 -10 316 -8
931 l3 880 28 47 c56 97 89 106 365 107 180 1 230 -2 260 -15z"/>
</g>
</svg>
